<svg id="Artwork" xmlns="http://www.w3.org/2000/svg" viewBox="0 0 521.9259 180.3014"><title>partner</title><path d="M392.2,392.3a.6375.6375,0,0,0,0-.6l-4-4a.4464.4464,0,0,0-.5,0c-.8.9-3.2,3.2-4.1,4.1a.4464.4464,0,0,0,0,.5c.8.9,3.2,3.2,4,4.1a.4464.4464,0,0,0,.5,0h0l4.1-4.1" transform="translate(-22.1 -290.4026)" fill="#fff"/><path d="M104.6,367.1s.3-.3.5-.2c.1.1.1.5.1.5-.5,3.4-2.1,15.6-2.9,31.5l-.3,7.8v.9l.5-.7a13.0033,13.0033,0,0,1,10.6-4.5,10.9013,10.9013,0,0,1,11.4,9.8,17.2944,17.2944,0,0,1-6.7,15.5,25.1718,25.1718,0,0,1-13.6,4.3c-5.2.1-10.6-.2-14-3.1-1.9-1.6-3.5-3.8-3.9-9.8,0-.5-.1-1.1-.1-1.7a8.602,8.602,0,0,1,.1-1.6c0-.4.1-.5.3-.5.1,0,.2.3.3.5a3.1281,3.1281,0,0,0,.5,1c2.9,5.7,12.9,6.6,16.3,6.5,7-.1,9.9-2.2,12-5.3a7.5433,7.5433,0,0,0,1.3-5.8c-.5-2.8-2.6-4.2-6.1-4.2a8.92,8.92,0,0,0-8.9,8.9v2.7c0,.4-.1.5-.2.5a1.4213,1.4213,0,0,1-.6-.2l-6.3-3.7a1.3444,1.3444,0,0,1-.7-.6,1.4861,1.4861,0,0,1-.2-.9c.1-5.6.1-11.9.3-15.9.4-8,1.1-15.8,2-23.4.1-.4.2-.9.3-1.3a6.4693,6.4693,0,0,1,.8-.9c-.1.1,7.2-6.1,7.2-6.1" transform="translate(-22.1 -290.4026)" fill="#fff"/><path d="M379.5,406c1.4-1.2,5.8-4.9,7.5-6.3a1.7265,1.7265,0,0,1,.4-.3.6292.6292,0,0,1,0,.6c-.3,5.7-.4,11.5-.4,17.1v5.8c.1,2.6.6,4,1.3,4.6a7.1632,7.1632,0,0,0,5.7,1h.4c.1,0,.4-.1.5,0,0,.2-.4.4-.6.5v.1a16.8949,16.8949,0,0,1-6.6,2h-1a7.8964,7.8964,0,0,1-5-2.2l-.4-.4c-.2-.2-.4-.5-.6-.7a7.3825,7.3825,0,0,1-1.5-4.5c-.1-2,0-12.9.1-16.1a2.2018,2.2018,0,0,1,.1-.8c-.1-.1,0-.3.1-.4" transform="translate(-22.1 -290.4026)" fill="#fff"/><path d="M314,423.1a8.7469,8.7469,0,0,1-6.6,1.7c-2.9-.4-4.5-1.6-4.5-3.3.1-1.8,1.4-2.8,4-2.9,1.9-.1,4.2,1.2,7.1,4l.3.2Zm61.6-10.9a10.9013,10.9013,0,0,0-11.4-9.8,13.1314,13.1314,0,0,0-10.6,4.5l-.5.7v-.9c.1-2.6.1-5.2.3-7.8.8-15.9,2.5-28.1,2.9-31.5,0,0,.1-.4-.1-.5a.4136.4136,0,0,0-.5.2s-7.4,6.2-7.3,6.1a3.0179,3.0179,0,0,0-1.2,2.2c-.9,7.6-1.5,15.4-1.9,23.4-.2,4-.3,10.3-.4,15.9a1.3958,1.3958,0,0,0,.3.9,4.3494,4.3494,0,0,0,.7.6l6.4,3.7a1.4213,1.4213,0,0,0,.6.2c.1,0,.2-.1.2-.5v-2.3a8.9449,8.9449,0,0,1,8.6-9.3h.3c3.5,0,5.6,1.4,6.1,4.2a7.9873,7.9873,0,0,1-1.3,5.8c-2.2,3.1-5,5.2-12.1,5.3-3.3.1-13.4-.8-16.2-6.5a2.01,2.01,0,0,1-.4-.8c-.1-.2-.3-.6-.4-.6-.2,0-.2.2-.2.5a1.7018,1.7018,0,0,0-.1.7,8.1409,8.1409,0,0,1-2.4,5,9.75,9.75,0,0,1-6.7.9,42.0906,42.0906,0,0,1-5.1-1.2l-.3-.1.1-.3c2-5,2.1-10.8.2-13.8a11.849,11.849,0,0,0-8.8-5.5c-3.6-.4-8.9.2-11.7,2.4-1.5,1.1-2,3.9-2.2,5.8-.1.4-.1.8.1.8.1.1.3-.1.6-.4a14.8236,14.8236,0,0,1,5.9-2.9,10.39,10.39,0,0,1,6.7.8,7.2266,7.2266,0,0,1,3.8,5.7,9.3067,9.3067,0,0,1-.1,2.9l-.1.5-.4-.4c-4.1-3.9-6.8-5-10.5-4.5a9.1787,9.1787,0,0,0-5.4,3.2c-.9.9-3.3,4.2-5.5,5.1-4.4,1.8-23.5,1-26.2-.7-1.6-1-1.4-3.5-1.3-4.4v-.1c0-.6.4-5.9.5-8.7a5.479,5.479,0,0,0-1.1-4.4,4.3358,4.3358,0,0,0-3.2-1.1,6.9173,6.9173,0,0,0-4.3,2,44.5685,44.5685,0,0,0-9.2,10.2c-.2.2-.3.6-.5.6-.3.1-.3-.4-.3-.6,0-4,.5-15.1.5-15.6.8-15.9,2.5-28.2,2.9-31.5v-.1c0-.2.1-.5,0-.5-.2-.1-.4.1-.4.1s-7.5,6.4-7.5,6.3a6.47,6.47,0,0,0-.8.9,3.0793,3.0793,0,0,0-.3,1.3v.2c-.7,5.8-1.6,13.7-1.9,23.2-.5,15.1-.5,22.5-.3,30.2.1,2,1.1,2.6,1.7,2.7a2.4214,2.4214,0,0,0,2.8-.9,68.3926,68.3926,0,0,1,13.6-18.9,1.2308,1.2308,0,0,1,1-.5c.4.1.4.5.4,1l-.2,2.5c-.1,1.1-.1,2.1-.2,4.5s.1,8.2,4,10.3c4,2.2,24,1.8,24,1.8,6.4.1,7.5-1.2,8.8-2.7a9.4556,9.4556,0,0,0,1.4-2.4,9.5508,9.5508,0,0,0,4.7,4.8,13.8788,13.8788,0,0,0,11.6-1,10.5178,10.5178,0,0,0,2.7-2l.2-.2.2.2a21.1234,21.1234,0,0,0,3.1,2.1,22.0632,22.0632,0,0,0,8.8,1.5c5.6-.2,7.6-2.7,8-4.3a4.2976,4.2976,0,0,0,.2-1.2,10.0224,10.0224,0,0,0,2.6,3.5c3.4,2.8,8.8,3.2,14,3.1a25.4407,25.4407,0,0,0,13.6-4.3,17.1264,17.1264,0,0,0,6.4-15.3" transform="translate(-22.1 -290.4026)" fill="#fff"/><path d="M232.2,383.4A27.2771,27.2771,0,0,0,218.7,373a32.9554,32.9554,0,0,0-11.2-1.9s-5.3-.1-8.2-.3a7.33,7.33,0,0,1-3.8-1.4c-.5-.3-.6-.6-.9-.6-.3.1-.3.9-.4,1.6-.4,5.3-1.8,22.8-2,27.1-.2,4-.3,10.4-.3,16a1.4861,1.4861,0,0,0,.2.9,4.3494,4.3494,0,0,0,.7.6l6.4,3.7a.661.661,0,0,0,.6.1c.1-.1.2-.2.2-.7v-1.4l.1-.7.1-9.4.1-1.3c.1-2.4.1-5.3.3-7.7.2-3.9.5-7.9.8-11.8h0a7.7863,7.7863,0,0,1,.9-3.7,4.41,4.41,0,0,1,3.3-2.1,17.2665,17.2665,0,0,1,9.5,1.3,19.806,19.806,0,0,1,9,6.6,17.9572,17.9572,0,0,1,3,7.1,28.79,28.79,0,0,1-2.3,16.6,19.9293,19.9293,0,0,1-13.2,10.1,37.4629,37.4629,0,0,1-8.2.9c-3.4,0-16.5-1.6-19.4-8.4-.3-.7-.3-1-.7-1-.3,0-.4.4-.5,1a13.8906,13.8906,0,0,1-1.4,4.5c-.7,1.2-1.7,4-11.7,3.8-7-.1-9.9-.2-12.6-1.8a3.7722,3.7722,0,0,1-1.4-3.3c0-.4.7-13.5.8-15.1.1-.5.1-.9-.1-1-.3-.1-.5.1-.8.5-1.3,1.1-3.5,2.9-4.9,4.2-.6.5-.8.6-1,1a2.6623,2.6623,0,0,0-.3,1.2c-.2,4.2-.7,13.1-.7,13.1l-.1.1a12.8555,12.8555,0,0,1-5.4,1.5A17.1774,17.1774,0,0,1,134,421a4.1793,4.1793,0,0,1-1.9-2.6,5.1034,5.1034,0,0,1,.6-3.8c.9-1.5,5.3-7.7,5.3-7.7a1.975,1.975,0,0,0,.4-1.2,1.5963,1.5963,0,0,0-.7-.9A20.7054,20.7054,0,0,0,135,403s-.8-.5-1-.6a.6682.6682,0,0,0-1,.1h0a24.624,24.624,0,0,0-5.4,15.8,13.3862,13.3862,0,0,0,3.9,9.5,15.5437,15.5437,0,0,0,11.7,3.8,12.3654,12.3654,0,0,0,7.7-3.2l.2-.2.2.2a4.5721,4.5721,0,0,0,1.7,1.4c4,2.2,13.1,2.3,17.9,2.2,10.3-.1,13.5-3.2,14.4-6a8.6025,8.6025,0,0,0,2.1,2.6c3.9,3.5,11.9,4.1,16.4,4.1a50.5488,50.5488,0,0,0,16.8-2.3,25.8518,25.8518,0,0,0,11.6-8.5,32.1606,32.1606,0,0,0,5.9-19.9,33.143,33.143,0,0,0-5.9-18.6" transform="translate(-22.1 -290.4026)" fill="#fff"/><path d="M70.8,418.3h0a25.3374,25.3374,0,0,1-6-4.3c-1.4-1.6-2.5-3.1,0-5.4a12.9792,12.9792,0,0,1,3.7-1.9c.7,4.1,2.3,11.6,2.3,11.6M88.1,413a8.6551,8.6551,0,0,0,.5-9.4c-2.2-4.7-6.7-7.1-13.5-6.5-1.5-6.6-6.3-26.2-6.3-26.5a2.7482,2.7482,0,0,0-1-1.6,4.0582,4.0582,0,0,0-1.9-.4,6.4022,6.4022,0,0,0-4,1.1,8.7885,8.7885,0,0,0-2.4,3.6c-1.2,2.8-3.2,7.3-5.8,12.9-1.8,3.7-3.8,8-6,12.8-2.8,5.9-10,19.8-10.7,21.1a5.4373,5.4373,0,0,1-2.2,2.3,6.415,6.415,0,0,1-4.9.2,5.77,5.77,0,0,1-3.5-3.8,6.5225,6.5225,0,0,1-.2-2.4,7.4247,7.4247,0,0,1,2.2-4.4c.2-.1.3-.2.3-.4,0-.1-.2-.1-.4-.1a8.9828,8.9828,0,0,0-6.2,7.3v.7a11.2178,11.2178,0,0,0,5.7,9.3c1.9,1.1,9.4,4.1,13.8-.5a33.82,33.82,0,0,0,5.3-8.7c2.2-4.4,7.4-15,8.3-16.9.9-1.8,5.9-12.2,8.4-17.2l.4-.7L66.9,399c-6.1,2.3-8.8,5.8-9.9,10.8-1.3,5.3,3.7,13,16.3,18.9a50.1067,50.1067,0,0,0,7.7,2.7c1.9.2,2.1-.6,2.2-1.1a10.7334,10.7334,0,0,0-.6-3.5c-.4-1.6-4-15.8-5.4-21.8,3.6-.2,6.6.5,8.4,2.7a7.7542,7.7542,0,0,1,1.8,5.1c0,.7,0,.8.1.8,0,.1.2,0,.6-.6" transform="translate(-22.1 -290.4026)" fill="#fff"/><path d="M137.7,395.2c.8-.9,2.3-2.5,3-3.3.2-.2.3-.3.4-.3.2,0,.3.1.5.3,1,.8,2.7,2.2,3.3,2.7a6.55,6.55,0,0,1,1.9,4.2,4.8794,4.8794,0,0,1-.1,1.7,16.0089,16.0089,0,0,1-1.7,4.6c-.1.2-.2.5-.4.4s-.2-.4-.1-.7v-.7a6.197,6.197,0,0,0-1.6-4.1,46.5707,46.5707,0,0,0-4.9-3.9c-.2-.2-.3-.2-.4-.5-.2,0-.1-.1.1-.4" transform="translate(-22.1 -290.4026)" fill="#fff"/><path d="M286.2,411.2a.6375.6375,0,0,0,0-.6c-.8-.9-3.2-3.2-4-4a.2833.2833,0,0,0-.5,0h0c-.8.8-3.3,3.2-4.1,4a.6375.6375,0,0,0,0,.6c.9.8,3.2,3.2,4.1,4a.2833.2833,0,0,0,.5,0h0c.8-.9,3.1-3.2,4-4" transform="translate(-22.1 -290.4026)" fill="#fff"/><path d="M507.4,355.3c-2.9-3.1-12,1.3-17.9,8a56.0253,56.0253,0,0,0-8.4,14.4c1.3-.2,10.4-4.6,18.5-10.9,3.1-2.4,10.7-8.4,7.8-11.5m-4.2,97.4c-9.8,3.6-25.8,6.5-40.4,2.7a62.8221,62.8221,0,0,1-7.3-2.5c17.1,15,33.7,21.5,44.1,15.7,13.5-7.5,25.6-20.3,34.4-35.9-8.7,10-20.8,16.3-30.8,20M490,398.2c-3.1-.7-7,9.2-3,10.1a9.702,9.702,0,0,0,1.7.1h0a19.352,19.352,0,0,0,5.8-1.2c-.4-5.9-1.9-8.5-4.5-9m-25.7-41c4.5,2.3,3.8,8.7,5.4,14.2a7.6819,7.6819,0,0,0,6.2,6s9.4-18.1,1.4-32.8-21.2-9.6-24.6-8c-4.5,2.1-21.6,13.2-30.2,36.3-8.5,23,3.8,30.8,11.3,32.1s19.2-6.3,19.6-10.3c.2-2.1-1.3-3.4-3.6-3.9s-8.4.8-12.3-3.8c-4.8-5.7,3.5-18.4,8.1-22.9,4.7-4.5,11.8-10.5,18.7-6.9m42,62.3c1.1-1.1,4.3-4.2,5.4-5.3a.4833.4833,0,0,1,.7,0h0c1.1,1.1,4.2,4.1,5.3,5.3a.6083.6083,0,0,1,0,.8l-5.3,5.3a.4833.4833,0,0,1-.7,0h0c-1.1-1.1-4.2-4.2-5.4-5.3a.6048.6048,0,0,1,0-.8m-31.2-19.7-5.3,5.3a.4833.4833,0,0,1-.7,0h0c-1.1-1.1-4.2-4.2-5.4-5.3a.4833.4833,0,0,1,0-.7c1.1-1.1,4.3-4.2,5.4-5.3a.4833.4833,0,0,1,.7,0h0c1.1,1.1,4.2,4.1,5.3,5.3a.4833.4833,0,0,1,0,.7M507.2,334l-5.3,5.3a.4833.4833,0,0,1-.7,0h0c-1.1-1.1-4.2-4.2-5.4-5.3a.4833.4833,0,0,1,0-.7c1.1-1.1,4.3-4.2,5.4-5.3a.4833.4833,0,0,1,.7,0h0c1.1,1.1,4.2,4.1,5.3,5.3a.82.82,0,0,1,0,.7m-6.7,109.9c21.7-7.9,28.5-19.8,33.4-28.1,10.4-17.5,10.7-37.1,9.8-42.8v-.3c-.6-4.8-1.9-9.5-3-9.6-4.5-.3-10.7,31.9-14.2,49.8a17.4236,17.4236,0,0,1-1.6,5.5,16.6545,16.6545,0,0,1-1.8,2.8c-.6.7-1.6,1.4-1.4.1,8.2-43.3,13.4-66.6,18.2-75.9a3.5085,3.5085,0,0,1,1.7-1.9c-.9-2.1-1.9-4.1-3-6.1C513,291,444.9,279.5,406.9,300.5c-16.5,9.2-15,52.5,7.1,96.6-2.1-12.3.7-23.3,6.9-36,8.3-17.1,34.7-42,54.5-34.3,17,6.5,10.4,33.2,10.4,33.2s11.8-15.7,21.2-16.2c5-.3,13.4,3.4,3.2,20-12,19.5-31.9,28.2-38.9,24.1-6.1-3.6-6.3-10.5-6.7-12.4s-1.4-8.1-7.1-8.5c-5.7-.5-16,7.5-14.7,11,1.1,3.1,8.7.6,12.2,2.8s4.8,5.5,3.6,11.2c-3.7,17.2-18.1,27.5-28.1,25.1a26.8216,26.8216,0,0,1-6.8-2.7c3.1,4.9,6.3,9.6,9.6,14l3-5.1c.1-.2.3-.3.4-.2a28.0581,28.0581,0,0,0,16.1-4.7c-2.6,8.4-6,13.8-17.5,12.6a1.7591,1.7591,0,0,0,.4.5,81.877,81.877,0,0,0,7.6,3.3c17.1,6.5,32.5-2.1,35.1-3.9,2.1-1.4,10.8-6.5,14.5-13.5a21.6339,21.6339,0,0,1-4.4.2c-1.1-.1-2.2-.2-2.5-.2-1.7-.1-10.7-1.5-4.9-15.1,1.1-2.4,5-11.8,10.6-9.8a10.8809,10.8809,0,0,1,7.3,8.8c.2,1.1.4,2.2.5,3.3A21.7917,21.7917,0,0,0,510,390.2c1-5.6-.3-8.4-1.9-8.7-2.1-.4-6,10.2-6.5,9.9-.6-.3,0-1.8.5-3.4,3.7-12.4,9.1-17.1,10.9-17.1s4.2,5.7,4.3,13.3c0,12-7,25.8-18.1,31.1a31.8685,31.8685,0,0,1-5.8,13.8,43.3221,43.3221,0,0,1-43.6,14.5c-1.7-.4-3.4-.8-4.9-1.3,1.8,1.9,3.6,3.8,5.4,5.5.7.2,2,.4,4.5.9a94.7308,94.7308,0,0,0,45.7-4.8" transform="translate(-22.1 -290.4026)" fill="#c30e2e"/></svg>
